<svg width="156" height="31" viewBox="0 0 156 31" fill="none" xmlns="http://www.w3.org/2000/svg">
<path d="M0.869318 30V0.90909H6.1392V25.5824H18.9517V30H0.869318ZM76.7678 30V0.90909H87.6768C89.9117 0.90909 91.7867 1.32576 93.3018 2.15909C94.8265 2.99242 95.977 4.13826 96.7536 5.59659C97.5395 7.04545 97.9325 8.69318 97.9325 10.5398C97.9325 12.4053 97.5395 14.0625 96.7536 15.5114C95.9676 16.9602 94.8075 18.1013 93.2734 18.9347C91.7393 19.7585 89.8501 20.1705 87.6058 20.1705H80.3757V15.8381H86.8956C88.2024 15.8381 89.2725 15.6108 90.1058 15.1562C90.9392 14.7017 91.5547 14.0767 91.9524 13.2812C92.3596 12.4858 92.5632 11.572 92.5632 10.5398C92.5632 9.50758 92.3596 8.59848 91.9524 7.8125C91.5547 7.02652 90.9344 6.41572 90.0916 5.98011C89.2583 5.53504 88.1835 5.3125 86.8672 5.3125H82.0376V30H76.7678Z" fill="#4A86E8"/>
<path d="M23.5256 30V0.90909H42.446V5.3267H28.7955V13.2244H41.4659V17.642H28.7955V25.5824H42.5597V30H23.5256ZM133.487 30V0.90909H144.396C146.63 0.90909 148.505 1.29735 150.021 2.07386C151.545 2.85038 152.696 3.93939 153.472 5.34091C154.258 6.73295 154.651 8.35701 154.651 10.2131C154.651 12.0786 154.254 13.6979 153.458 15.071C152.672 16.4347 151.512 17.4905 149.978 18.2386C148.444 18.9773 146.559 19.3466 144.325 19.3466H136.555V14.9716H143.614C144.921 14.9716 145.991 14.7917 146.825 14.4318C147.658 14.0625 148.273 13.5275 148.671 12.8267C149.078 12.1165 149.282 11.2453 149.282 10.2131C149.282 9.18087 149.078 8.30019 148.671 7.57102C148.264 6.83239 147.644 6.27367 146.81 5.89489C145.977 5.50663 144.902 5.3125 143.586 5.3125H138.756V30H133.487ZM148.515 16.8182L155.717 30H149.836L142.762 16.8182H148.515Z" fill="#FF0000"/>
<path d="M51.5582 30H45.9332L56.1747 0.90909H62.6804L72.9361 30H67.3111L59.5412 6.875H59.3139L51.5582 30ZM51.7429 18.5938H67.0838V22.8267H51.7429V18.5938Z" fill="#FF9900"/>
<path d="M128.504 15.4545C128.504 18.589 127.917 21.2737 126.743 23.5085C125.578 25.7339 123.987 27.4384 121.97 28.6222C119.963 29.8059 117.685 30.3977 115.138 30.3977C112.59 30.3977 110.308 29.8059 108.291 28.6222C106.284 27.429 104.693 25.7197 103.518 23.4943C102.354 21.2595 101.771 18.5795 101.771 15.4545C101.771 12.3201 102.354 9.64015 103.518 7.41477C104.693 5.17992 106.284 3.47064 108.291 2.28693C110.308 1.10322 112.59 0.511363 115.138 0.511363C117.685 0.511363 119.963 1.10322 121.97 2.28693C123.987 3.47064 125.578 5.17992 126.743 7.41477C127.917 9.64015 128.504 12.3201 128.504 15.4545ZM123.206 15.4545C123.206 13.2481 122.86 11.3873 122.169 9.87216C121.487 8.34754 120.54 7.19697 119.328 6.42045C118.116 5.63447 116.719 5.24148 115.138 5.24148C113.556 5.24148 112.16 5.63447 110.947 6.42045C109.735 7.19697 108.784 8.34754 108.092 9.87216C107.411 11.3873 107.07 13.2481 107.07 15.4545C107.07 17.661 107.411 19.5265 108.092 21.0511C108.784 22.5663 109.735 23.7169 110.947 24.5028C112.16 25.2794 113.556 25.6676 115.138 25.6676C116.719 25.6676 118.116 25.2794 119.328 24.5028C120.54 23.7169 121.487 22.5663 122.169 21.0511C122.86 19.5265 123.206 17.661 123.206 15.4545Z" fill="#6AA84F"/>
</svg>
