<svg width="161" height="72" viewBox="0 0 161 72" fill="none" xmlns="http://www.w3.org/2000/svg">
<path d="M0.511364 52.4545H2.52841L6.5625 59.2443H6.73295L10.767 52.4545H12.7841L7.52841 61.0057V67H5.76705V61.0057L0.511364 52.4545ZM17.7237 67.2273C16.7389 67.2273 15.8748 66.9929 15.1314 66.5241C14.3928 66.0554 13.8151 65.3996 13.3984 64.5568C12.9865 63.714 12.7805 62.7292 12.7805 61.6023C12.7805 60.4659 12.9865 59.474 13.3984 58.6264C13.8151 57.7789 14.3928 57.1207 15.1314 56.652C15.8748 56.1832 16.7389 55.9489 17.7237 55.9489C18.7086 55.9489 19.5703 56.1832 20.3089 56.652C21.0523 57.1207 21.63 57.7789 22.0419 58.6264C22.4586 59.474 22.6669 60.4659 22.6669 61.6023C22.6669 62.7292 22.4586 63.714 22.0419 64.5568C21.63 65.3996 21.0523 66.0554 20.3089 66.5241C19.5703 66.9929 18.7086 67.2273 17.7237 67.2273ZM17.7237 65.7216C18.4718 65.7216 19.0874 65.5298 19.5703 65.1463C20.0533 64.7628 20.4107 64.2585 20.6428 63.6335C20.8748 63.0085 20.9908 62.3314 20.9908 61.6023C20.9908 60.8731 20.8748 60.1937 20.6428 59.5639C20.4107 58.9342 20.0533 58.4252 19.5703 58.0369C19.0874 57.6487 18.4718 57.4545 17.7237 57.4545C16.9756 57.4545 16.3601 57.6487 15.8771 58.0369C15.3942 58.4252 15.0367 58.9342 14.8047 59.5639C14.5727 60.1937 14.4567 60.8731 14.4567 61.6023C14.4567 62.3314 14.5727 63.0085 14.8047 63.6335C15.0367 64.2585 15.3942 64.7628 15.8771 65.1463C16.3601 65.5298 16.9756 65.7216 17.7237 65.7216ZM32.1005 62.5398V56.0909H33.7766V67H32.1005V65.1534H31.9869C31.7312 65.7074 31.3335 66.1785 30.7937 66.5668C30.2539 66.9503 29.5721 67.142 28.7482 67.142C28.0664 67.142 27.4603 66.9929 26.93 66.6946C26.3997 66.3916 25.9831 65.937 25.68 65.331C25.377 64.7202 25.2255 63.9508 25.2255 63.0227V56.0909H26.9016V62.9091C26.9016 63.7045 27.1242 64.339 27.5692 64.8125C28.0191 65.286 28.592 65.5227 29.288 65.5227C29.7047 65.5227 30.1284 65.4162 30.5593 65.2031C30.9949 64.9901 31.3595 64.6634 31.6531 64.223C31.9513 63.7827 32.1005 63.2216 32.1005 62.5398ZM36.8466 67V56.0909H38.4659V57.7386H38.5795C38.7784 57.1989 39.1383 56.7609 39.6591 56.4247C40.1799 56.0885 40.767 55.9205 41.4205 55.9205C41.5436 55.9205 41.6974 55.9228 41.8821 55.9276C42.0668 55.9323 42.2064 55.9394 42.3011 55.9489V57.6534C42.2443 57.6392 42.1141 57.6179 41.9105 57.5895C41.7116 57.5563 41.5009 57.5398 41.2784 57.5398C40.7481 57.5398 40.2746 57.651 39.858 57.8736C39.446 58.0914 39.1193 58.3944 38.8778 58.7827C38.6411 59.1662 38.5227 59.6042 38.5227 60.0966V67H36.8466ZM54.6289 67H50.1403V52.4545H54.8278C56.2388 52.4545 57.4461 52.7457 58.4499 53.3281C59.4537 53.9058 60.2231 54.7367 60.7582 55.821C61.2932 56.9006 61.5607 58.1932 61.5607 59.6989C61.5607 61.214 61.2908 62.5185 60.7511 63.6122C60.2113 64.7012 59.4253 65.5393 58.3931 66.1264C57.3609 66.7088 56.1062 67 54.6289 67ZM51.9016 65.4375H54.5153C55.7179 65.4375 56.7146 65.2055 57.5053 64.7415C58.296 64.2775 58.8855 63.617 59.2738 62.7599C59.6621 61.9029 59.8562 60.8826 59.8562 59.6989C59.8562 58.5246 59.6644 57.5137 59.2809 56.6662C58.8974 55.8139 58.3245 55.1605 57.5621 54.706C56.7998 54.2467 55.8505 54.017 54.7141 54.017H51.9016V65.4375ZM68.8619 67.2273C67.8107 67.2273 66.904 66.9953 66.1417 66.5312C65.3841 66.0625 64.7994 65.4091 64.3874 64.571C63.9802 63.7282 63.7766 62.7481 63.7766 61.6307C63.7766 60.5133 63.9802 59.5284 64.3874 58.6761C64.7994 57.8191 65.3723 57.1515 66.1062 56.6733C66.8448 56.1903 67.7066 55.9489 68.6914 55.9489C69.2596 55.9489 69.8207 56.0436 70.3746 56.233C70.9286 56.4223 71.4329 56.7301 71.8874 57.1562C72.342 57.5777 72.7042 58.1364 72.9741 58.8324C73.244 59.5284 73.3789 60.3854 73.3789 61.4034V62.1136H64.9698V60.6648H71.6744C71.6744 60.0492 71.5513 59.5 71.305 59.017C71.0636 58.5341 70.7179 58.1529 70.2681 57.8736C69.823 57.5942 69.2975 57.4545 68.6914 57.4545C68.0238 57.4545 67.4461 57.6203 66.9585 57.9517C66.4755 58.2784 66.1038 58.7045 65.8434 59.2301C65.583 59.7557 65.4528 60.3191 65.4528 60.9205V61.8864C65.4528 62.7102 65.5948 63.4086 65.8789 63.9815C66.1677 64.5497 66.5678 64.983 67.0792 65.2812C67.5906 65.5748 68.1848 65.7216 68.8619 65.7216C69.3022 65.7216 69.6999 65.66 70.055 65.5369C70.4149 65.4091 70.725 65.2197 70.9854 64.9688C71.2459 64.7131 71.4471 64.3958 71.5891 64.017L73.2085 64.4716C73.038 65.0208 72.7515 65.5038 72.3491 65.9205C71.9466 66.3324 71.4495 66.6544 70.8576 66.8864C70.2657 67.1136 69.6005 67.2273 68.8619 67.2273ZM83.6559 58.5341L82.1502 58.9602C82.0555 58.7093 81.9158 58.4654 81.7312 58.2287C81.5513 57.9872 81.305 57.7884 80.9925 57.6321C80.68 57.4759 80.2799 57.3977 79.7923 57.3977C79.1246 57.3977 78.5683 57.5516 78.1232 57.8594C77.6829 58.1624 77.4627 58.5483 77.4627 59.017C77.4627 59.4337 77.6142 59.7628 77.9173 60.0043C78.2203 60.2457 78.6938 60.447 79.3377 60.608L80.957 61.0057C81.9324 61.2424 82.6592 61.6046 83.1374 62.0923C83.6156 62.5753 83.8548 63.1979 83.8548 63.9602C83.8548 64.5852 83.6748 65.1439 83.315 65.6364C82.9599 66.1288 82.4627 66.517 81.8235 66.8011C81.1843 67.0852 80.4409 67.2273 79.5934 67.2273C78.4807 67.2273 77.5598 66.9858 76.8306 66.5028C76.1014 66.0199 75.6398 65.3144 75.4457 64.3864L77.0366 63.9886C77.1881 64.5758 77.4746 65.0161 77.896 65.3097C78.3221 65.6032 78.8784 65.75 79.565 65.75C80.3462 65.75 80.9665 65.5843 81.4258 65.2528C81.8898 64.9167 82.1218 64.5142 82.1218 64.0455C82.1218 63.6667 81.9892 63.3494 81.7241 63.0938C81.4589 62.8333 81.0517 62.6392 80.5025 62.5114L78.6843 62.0852C77.6853 61.8485 76.9513 61.4815 76.4826 60.9844C76.0186 60.4825 75.7866 59.8551 75.7866 59.1023C75.7866 58.4867 75.9594 57.9422 76.305 57.4688C76.6554 56.9953 77.1313 56.6236 77.7326 56.3537C78.3387 56.0838 79.0252 55.9489 79.7923 55.9489C80.8718 55.9489 81.7193 56.1856 82.3349 56.6591C82.9551 57.1326 83.3955 57.7576 83.6559 58.5341ZM86.3778 67V56.0909H88.054V67H86.3778ZM87.2301 54.2727C86.9034 54.2727 86.6217 54.1615 86.3849 53.9389C86.1529 53.7164 86.0369 53.4489 86.0369 53.1364C86.0369 52.8239 86.1529 52.5563 86.3849 52.3338C86.6217 52.1113 86.9034 52 87.2301 52C87.5568 52 87.8362 52.1113 88.0682 52.3338C88.3049 52.5563 88.4233 52.8239 88.4233 53.1364C88.4233 53.4489 88.3049 53.7164 88.0682 53.9389C87.8362 54.1615 87.5568 54.2727 87.2301 54.2727ZM91.1239 67V56.0909H92.7433V57.7386H92.8569C93.0558 57.1989 93.4156 56.7609 93.9364 56.4247C94.4573 56.0885 95.0444 55.9205 95.6978 55.9205C95.8209 55.9205 95.9748 55.9228 96.1594 55.9276C96.3441 55.9323 96.4838 55.9394 96.5785 55.9489V57.6534C96.5217 57.6392 96.3915 57.6179 96.1879 57.5895C95.989 57.5563 95.7783 57.5398 95.5558 57.5398C95.0255 57.5398 94.552 57.651 94.1353 57.8736C93.7234 58.0914 93.3967 58.3944 93.1552 58.7827C92.9184 59.1662 92.8001 59.6042 92.8001 60.0966V67H91.1239ZM102.807 67.2273C101.756 67.2273 100.849 66.9953 100.087 66.5312C99.3294 66.0625 98.7447 65.4091 98.3327 64.571C97.9255 63.7282 97.7219 62.7481 97.7219 61.6307C97.7219 60.5133 97.9255 59.5284 98.3327 58.6761C98.7447 57.8191 99.3176 57.1515 100.051 56.6733C100.79 56.1903 101.652 55.9489 102.637 55.9489C103.205 55.9489 103.766 56.0436 104.32 56.233C104.874 56.4223 105.378 56.7301 105.833 57.1562C106.287 57.5777 106.65 58.1364 106.919 58.8324C107.189 59.5284 107.324 60.3854 107.324 61.4034V62.1136H98.9151V60.6648H105.62C105.62 60.0492 105.497 59.5 105.25 59.017C105.009 58.5341 104.663 58.1529 104.213 57.8736C103.768 57.5942 103.243 57.4545 102.637 57.4545C101.969 57.4545 101.391 57.6203 100.904 57.9517C100.421 58.2784 100.049 58.7045 99.7887 59.2301C99.5283 59.7557 99.3981 60.3191 99.3981 60.9205V61.8864C99.3981 62.7102 99.5401 63.4086 99.8242 63.9815C100.113 64.5497 100.513 64.983 101.025 65.2812C101.536 65.5748 102.13 65.7216 102.807 65.7216C103.248 65.7216 103.645 65.66 104 65.5369C104.36 65.4091 104.67 65.2197 104.931 64.9688C105.191 64.7131 105.392 64.3958 105.534 64.017L107.154 64.4716C106.983 65.0208 106.697 65.5038 106.294 65.9205C105.892 66.3324 105.395 66.6544 104.803 66.8864C104.211 67.1136 103.546 67.2273 102.807 67.2273Z" fill="black"/>
<path d="M115.726 67V52.4545H117.488V65.4375H124.249V67H115.726ZM149.659 71.0909V56.0909H151.278V57.8239H151.477C151.6 57.6345 151.771 57.393 151.989 57.0994C152.211 56.8011 152.528 56.536 152.94 56.304C153.357 56.0672 153.92 55.9489 154.631 55.9489C155.549 55.9489 156.359 56.1785 157.06 56.6378C157.76 57.0971 158.307 57.7481 158.7 58.5909C159.093 59.4337 159.29 60.428 159.29 61.5739C159.29 62.7292 159.093 63.7306 158.7 64.5781C158.307 65.4209 157.763 66.0743 157.067 66.5384C156.371 66.9976 155.568 67.2273 154.659 67.2273C153.958 67.2273 153.397 67.1113 152.976 66.8793C152.554 66.6425 152.23 66.375 152.003 66.0767C151.776 65.7737 151.6 65.5227 151.477 65.3239H151.335V71.0909H149.659ZM151.307 61.5455C151.307 62.3693 151.428 63.0961 151.669 63.7259C151.911 64.3509 152.263 64.8409 152.727 65.196C153.191 65.5464 153.759 65.7216 154.432 65.7216C155.133 65.7216 155.717 65.5369 156.186 65.1676C156.66 64.7936 157.015 64.2917 157.251 63.6619C157.493 63.0275 157.614 62.322 157.614 61.5455C157.614 60.7784 157.495 60.0871 157.259 59.4716C157.027 58.8513 156.674 58.3613 156.2 58.0014C155.732 57.6368 155.142 57.4545 154.432 57.4545C153.75 57.4545 153.177 57.6274 152.713 57.973C152.249 58.3139 151.899 58.7921 151.662 59.4077C151.425 60.0185 151.307 60.7311 151.307 61.5455Z" fill="#4A86E8"/>
<path d="M131.323 67.2273C130.272 67.2273 129.365 66.9953 128.603 66.5312C127.845 66.0625 127.26 65.4091 126.848 64.571C126.441 63.7282 126.238 62.7481 126.238 61.6307C126.238 60.5133 126.441 59.5284 126.848 58.6761C127.26 57.8191 127.833 57.1515 128.567 56.6733C129.306 56.1903 130.167 55.9489 131.152 55.9489C131.721 55.9489 132.282 56.0436 132.836 56.233C133.39 56.4223 133.894 56.7301 134.348 57.1562C134.803 57.5777 135.165 58.1364 135.435 58.8324C135.705 59.5284 135.84 60.3854 135.84 61.4034V62.1136H127.431V60.6648H134.135C134.135 60.0492 134.012 59.5 133.766 59.017C133.525 58.5341 133.179 58.1529 132.729 57.8736C132.284 57.5942 131.758 57.4545 131.152 57.4545C130.485 57.4545 129.907 57.6203 129.419 57.9517C128.936 58.2784 128.565 58.7045 128.304 59.2301C128.044 59.7557 127.914 60.3191 127.914 60.9205V61.8864C127.914 62.7102 128.056 63.4086 128.34 63.9815C128.629 64.5497 129.029 64.983 129.54 65.2812C130.051 65.5748 130.646 65.7216 131.323 65.7216C131.763 65.7216 132.161 65.66 132.516 65.5369C132.876 65.4091 133.186 65.2197 133.446 64.9688C133.707 64.7131 133.908 64.3958 134.05 64.017L135.669 64.4716C135.499 65.0208 135.212 65.5038 134.81 65.9205C134.408 66.3324 133.91 66.6544 133.319 66.8864C132.727 67.1136 132.061 67.2273 131.323 67.2273Z" fill="#FF0000"/>
<path d="M141.6 67.2557C140.908 67.2557 140.281 67.1255 139.718 66.8651C139.154 66.5999 138.707 66.2188 138.375 65.7216C138.044 65.2197 137.878 64.6136 137.878 63.9034C137.878 63.2784 138.001 62.7718 138.248 62.3835C138.494 61.9905 138.823 61.6828 139.235 61.4602C139.647 61.2377 140.101 61.072 140.598 60.9631C141.1 60.8494 141.605 60.7595 142.111 60.6932C142.774 60.608 143.311 60.544 143.723 60.5014C144.14 60.4541 144.443 60.3759 144.632 60.267C144.827 60.1581 144.924 59.9687 144.924 59.6989V59.642C144.924 58.9413 144.732 58.3968 144.348 58.0085C143.97 57.6203 143.394 57.4261 142.623 57.4261C141.822 57.4261 141.195 57.6013 140.74 57.9517C140.286 58.3021 139.966 58.6761 139.782 59.0739L138.191 58.5057C138.475 57.8428 138.854 57.3267 139.327 56.9574C139.805 56.5833 140.326 56.3229 140.89 56.1761C141.458 56.0246 142.016 55.9489 142.566 55.9489C142.916 55.9489 143.319 55.9915 143.773 56.0767C144.232 56.1572 144.675 56.3253 145.101 56.581C145.532 56.8366 145.89 57.2225 146.174 57.7386C146.458 58.2547 146.6 58.946 146.6 59.8125V67H144.924V65.5227H144.838C144.725 65.7595 144.535 66.0128 144.27 66.2827C144.005 66.5526 143.652 66.7822 143.212 66.9716C142.772 67.161 142.234 67.2557 141.6 67.2557ZM141.855 65.75C142.518 65.75 143.077 65.6198 143.532 65.3594C143.991 65.099 144.337 64.7628 144.569 64.3509C144.805 63.9389 144.924 63.5057 144.924 63.0511V61.517C144.853 61.6023 144.696 61.6804 144.455 61.7514C144.218 61.8177 143.944 61.8769 143.631 61.929C143.323 61.9763 143.023 62.0189 142.729 62.0568C142.44 62.09 142.206 62.1184 142.026 62.142C141.59 62.1989 141.183 62.2912 140.804 62.419C140.43 62.5421 140.127 62.7292 139.895 62.9801C139.668 63.2263 139.554 63.5625 139.554 63.9886C139.554 64.571 139.77 65.0114 140.201 65.3097C140.636 65.6032 141.188 65.75 141.855 65.75Z" fill="#FF9900"/>
<path d="M3.86932 39V9.90909H9.1392V34.5824H21.9517V39H3.86932ZM79.7678 39V9.90909H90.6768C92.9117 9.90909 94.7867 10.3258 96.3018 11.1591C97.8265 11.9924 98.977 13.1383 99.7536 14.5966C100.54 16.0455 100.933 17.6932 100.933 19.5398C100.933 21.4053 100.54 23.0625 99.7536 24.5114C98.9676 25.9602 97.8075 27.1013 96.2734 27.9347C94.7393 28.7585 92.8501 29.1705 90.6058 29.1705H83.3757V24.8381H89.8956C91.2024 24.8381 92.2725 24.6108 93.1058 24.1562C93.9392 23.7017 94.5547 23.0767 94.9524 22.2812C95.3596 21.4858 95.5632 20.572 95.5632 19.5398C95.5632 18.5076 95.3596 17.5985 94.9524 16.8125C94.5547 16.0265 93.9344 15.4157 93.0916 14.9801C92.2583 14.535 91.1835 14.3125 89.8672 14.3125H85.0376V39H79.7678Z" fill="#4A86E8"/>
<path d="M26.5256 39V9.90909H45.446V14.3267H31.7955V22.2244H44.4659V26.642H31.7955V34.5824H45.5597V39H26.5256ZM136.487 39V9.90909H147.396C149.63 9.90909 151.505 10.2973 153.021 11.0739C154.545 11.8504 155.696 12.9394 156.472 14.3409C157.258 15.733 157.651 17.357 157.651 19.2131C157.651 21.0786 157.254 22.6979 156.458 24.071C155.672 25.4347 154.512 26.4905 152.978 27.2386C151.444 27.9773 149.559 28.3466 147.325 28.3466H139.555V23.9716H146.614C147.921 23.9716 148.991 23.7917 149.825 23.4318C150.658 23.0625 151.273 22.5275 151.671 21.8267C152.078 21.1165 152.282 20.2453 152.282 19.2131C152.282 18.1809 152.078 17.3002 151.671 16.571C151.264 15.8324 150.644 15.2737 149.81 14.8949C148.977 14.5066 147.902 14.3125 146.586 14.3125H141.756V39H136.487ZM151.515 25.8182L158.717 39H152.836L145.762 25.8182H151.515Z" fill="#FF0000"/>
<path d="M54.5582 39H48.9332L59.1747 9.90909H65.6804L75.9361 39H70.3111L62.5412 15.875H62.3139L54.5582 39ZM54.7429 27.5938H70.0838V31.8267H54.7429V27.5938Z" fill="#FF9900"/>
<path d="M131.504 24.4545C131.504 27.589 130.917 30.2737 129.743 32.5085C128.578 34.7339 126.987 36.4384 124.97 37.6222C122.963 38.8059 120.685 39.3977 118.138 39.3977C115.59 39.3977 113.308 38.8059 111.291 37.6222C109.284 36.429 107.693 34.7197 106.518 32.4943C105.354 30.2595 104.771 27.5795 104.771 24.4545C104.771 21.3201 105.354 18.6402 106.518 16.4148C107.693 14.1799 109.284 12.4706 111.291 11.2869C113.308 10.1032 115.59 9.51136 118.138 9.51136C120.685 9.51136 122.963 10.1032 124.97 11.2869C126.987 12.4706 128.578 14.1799 129.743 16.4148C130.917 18.6402 131.504 21.3201 131.504 24.4545ZM126.206 24.4545C126.206 22.2481 125.86 20.3873 125.169 18.8722C124.487 17.3475 123.54 16.197 122.328 15.4205C121.116 14.6345 119.719 14.2415 118.138 14.2415C116.556 14.2415 115.16 14.6345 113.947 15.4205C112.735 16.197 111.784 17.3475 111.092 18.8722C110.411 20.3873 110.07 22.2481 110.07 24.4545C110.07 26.661 110.411 28.5265 111.092 30.0511C111.784 31.5663 112.735 32.7169 113.947 33.5028C115.16 34.2794 116.556 34.6676 118.138 34.6676C119.719 34.6676 121.116 34.2794 122.328 33.5028C123.54 32.7169 124.487 31.5663 125.169 30.0511C125.86 28.5265 126.206 26.661 126.206 24.4545Z" fill="#6AA84F"/>
</svg>
