<svg width="244" height="76" viewBox="0 0 244 76" fill="none" xmlns="http://www.w3.org/2000/svg">
<path d="M83.5112 56.4545H85.5283L89.5624 63.2443H89.7328L93.7669 56.4545H95.784L90.5283 65.0057V71H88.7669V65.0057L83.5112 56.4545ZM100.724 71.2273C99.7388 71.2273 98.8746 70.9929 98.1313 70.5241C97.3926 70.0554 96.815 69.3996 96.3983 68.5568C95.9864 67.714 95.7804 66.7292 95.7804 65.6023C95.7804 64.4659 95.9864 63.474 96.3983 62.6264C96.815 61.7789 97.3926 61.1207 98.1313 60.652C98.8746 60.1832 99.7388 59.9489 100.724 59.9489C101.708 59.9489 102.57 60.1832 103.309 60.652C104.052 61.1207 104.63 61.7789 105.042 62.6264C105.458 63.474 105.667 64.4659 105.667 65.6023C105.667 66.7292 105.458 67.714 105.042 68.5568C104.63 69.3996 104.052 70.0554 103.309 70.5241C102.57 70.9929 101.708 71.2273 100.724 71.2273ZM100.724 69.7216C101.472 69.7216 102.087 69.5298 102.57 69.1463C103.053 68.7628 103.411 68.2585 103.643 67.6335C103.875 67.0085 103.991 66.3314 103.991 65.6023C103.991 64.8731 103.875 64.1937 103.643 63.5639C103.411 62.9342 103.053 62.4252 102.57 62.0369C102.087 61.6487 101.472 61.4545 100.724 61.4545C99.9755 61.4545 99.36 61.6487 98.877 62.0369C98.3941 62.4252 98.0366 62.9342 97.8046 63.5639C97.5726 64.1937 97.4566 64.8731 97.4566 65.6023C97.4566 66.3314 97.5726 67.0085 97.8046 67.6335C98.0366 68.2585 98.3941 68.7628 98.877 69.1463C99.36 69.5298 99.9755 69.7216 100.724 69.7216ZM115.1 66.5398V60.0909H116.777V71H115.1V69.1534H114.987C114.731 69.7074 114.333 70.1785 113.794 70.5668C113.254 70.9503 112.572 71.142 111.748 71.142C111.066 71.142 110.46 70.9929 109.93 70.6946C109.4 70.3916 108.983 69.937 108.68 69.331C108.377 68.7202 108.225 67.9508 108.225 67.0227V60.0909H109.902V66.9091C109.902 67.7045 110.124 68.339 110.569 68.8125C111.019 69.286 111.592 69.5227 112.288 69.5227C112.705 69.5227 113.128 69.4162 113.559 69.2031C113.995 68.9901 114.359 68.6634 114.653 68.223C114.951 67.7827 115.1 67.2216 115.1 66.5398ZM119.846 71V60.0909H121.466V61.7386H121.579C121.778 61.1989 122.138 60.7609 122.659 60.4247C123.18 60.0885 123.767 59.9205 124.42 59.9205C124.543 59.9205 124.697 59.9228 124.882 59.9276C125.067 59.9323 125.206 59.9394 125.301 59.9489V61.6534C125.244 61.6392 125.114 61.6179 124.91 61.5895C124.712 61.5563 124.501 61.5398 124.278 61.5398C123.748 61.5398 123.274 61.651 122.858 61.8736C122.446 62.0914 122.119 62.3944 121.878 62.7827C121.641 63.1662 121.523 63.6042 121.523 64.0966V71H119.846ZM137.629 71H133.14V56.4545H137.828C139.239 56.4545 140.446 56.7457 141.45 57.3281C142.454 57.9058 143.223 58.7367 143.758 59.821C144.293 60.9006 144.561 62.1932 144.561 63.6989C144.561 65.214 144.291 66.5185 143.751 67.6122C143.211 68.7012 142.425 69.5393 141.393 70.1264C140.361 70.7088 139.106 71 137.629 71ZM134.902 69.4375H137.515C138.718 69.4375 139.714 69.2055 140.505 68.7415C141.296 68.2775 141.885 67.617 142.274 66.7599C142.662 65.9029 142.856 64.8826 142.856 63.6989C142.856 62.5246 142.664 61.5137 142.281 60.6662C141.897 59.8139 141.324 59.1605 140.562 58.706C139.8 58.2467 138.85 58.017 137.714 58.017H134.902V69.4375ZM151.862 71.2273C150.811 71.2273 149.904 70.9953 149.142 70.5312C148.384 70.0625 147.799 69.4091 147.387 68.571C146.98 67.7282 146.777 66.7481 146.777 65.6307C146.777 64.5133 146.98 63.5284 147.387 62.6761C147.799 61.8191 148.372 61.1515 149.106 60.6733C149.845 60.1903 150.706 59.9489 151.691 59.9489C152.259 59.9489 152.821 60.0436 153.375 60.233C153.929 60.4223 154.433 60.7301 154.887 61.1562C155.342 61.5777 155.704 62.1364 155.974 62.8324C156.244 63.5284 156.379 64.3854 156.379 65.4034V66.1136H147.97V64.6648H154.674C154.674 64.0492 154.551 63.5 154.305 63.017C154.063 62.5341 153.718 62.1529 153.268 61.8736C152.823 61.5942 152.297 61.4545 151.691 61.4545C151.024 61.4545 150.446 61.6203 149.958 61.9517C149.475 62.2784 149.104 62.7045 148.843 63.2301C148.583 63.7557 148.453 64.3191 148.453 64.9205V65.8864C148.453 66.7102 148.595 67.4086 148.879 67.9815C149.168 68.5497 149.568 68.983 150.079 69.2812C150.59 69.5748 151.185 69.7216 151.862 69.7216C152.302 69.7216 152.7 69.66 153.055 69.5369C153.415 69.4091 153.725 69.2197 153.985 68.9688C154.246 68.7131 154.447 68.3958 154.589 68.017L156.208 68.4716C156.038 69.0208 155.751 69.5038 155.349 69.9205C154.946 70.3324 154.449 70.6544 153.857 70.8864C153.266 71.1136 152.6 71.2273 151.862 71.2273ZM166.656 62.5341L165.15 62.9602C165.055 62.7093 164.916 62.4654 164.731 62.2287C164.551 61.9872 164.305 61.7884 163.992 61.6321C163.68 61.4759 163.28 61.3977 162.792 61.3977C162.125 61.3977 161.568 61.5516 161.123 61.8594C160.683 62.1624 160.463 62.5483 160.463 63.017C160.463 63.4337 160.614 63.7628 160.917 64.0043C161.22 64.2457 161.694 64.447 162.338 64.608L163.957 65.0057C164.932 65.2424 165.659 65.6046 166.137 66.0923C166.616 66.5753 166.855 67.1979 166.855 67.9602C166.855 68.5852 166.675 69.1439 166.315 69.6364C165.96 70.1288 165.463 70.517 164.823 70.8011C164.184 71.0852 163.441 71.2273 162.593 71.2273C161.481 71.2273 160.56 70.9858 159.83 70.5028C159.101 70.0199 158.64 69.3144 158.446 68.3864L160.036 67.9886C160.188 68.5758 160.474 69.0161 160.896 69.3097C161.322 69.6032 161.878 69.75 162.565 69.75C163.346 69.75 163.966 69.5843 164.426 69.2528C164.89 68.9167 165.122 68.5142 165.122 68.0455C165.122 67.6667 164.989 67.3494 164.724 67.0938C164.459 66.8333 164.052 66.6392 163.502 66.5114L161.684 66.0852C160.685 65.8485 159.951 65.4815 159.482 64.9844C159.018 64.4825 158.786 63.8551 158.786 63.1023C158.786 62.4867 158.959 61.9422 159.305 61.4688C159.655 60.9953 160.131 60.6236 160.732 60.3537C161.339 60.0838 162.025 59.9489 162.792 59.9489C163.872 59.9489 164.719 60.1856 165.335 60.6591C165.955 61.1326 166.395 61.7576 166.656 62.5341ZM169.378 71V60.0909H171.054V71H169.378ZM170.23 58.2727C169.903 58.2727 169.622 58.1615 169.385 57.9389C169.153 57.7164 169.037 57.4489 169.037 57.1364C169.037 56.8239 169.153 56.5563 169.385 56.3338C169.622 56.1113 169.903 56 170.23 56C170.557 56 170.836 56.1113 171.068 56.3338C171.305 56.5563 171.423 56.8239 171.423 57.1364C171.423 57.4489 171.305 57.7164 171.068 57.9389C170.836 58.1615 170.557 58.2727 170.23 58.2727ZM174.124 71V60.0909H175.743V61.7386H175.857C176.056 61.1989 176.415 60.7609 176.936 60.4247C177.457 60.0885 178.044 59.9205 178.698 59.9205C178.821 59.9205 178.975 59.9228 179.159 59.9276C179.344 59.9323 179.484 59.9394 179.578 59.9489V61.6534C179.522 61.6392 179.391 61.6179 179.188 61.5895C178.989 61.5563 178.778 61.5398 178.556 61.5398C178.025 61.5398 177.552 61.651 177.135 61.8736C176.723 62.0914 176.397 62.3944 176.155 62.7827C175.918 63.1662 175.8 63.6042 175.8 64.0966V71H174.124ZM185.807 71.2273C184.756 71.2273 183.849 70.9953 183.087 70.5312C182.329 70.0625 181.745 69.4091 181.333 68.571C180.925 67.7282 180.722 66.7481 180.722 65.6307C180.722 64.5133 180.925 63.5284 181.333 62.6761C181.745 61.8191 182.317 61.1515 183.051 60.6733C183.79 60.1903 184.652 59.9489 185.637 59.9489C186.205 59.9489 186.766 60.0436 187.32 60.233C187.874 60.4223 188.378 60.7301 188.833 61.1562C189.287 61.5777 189.649 62.1364 189.919 62.8324C190.189 63.5284 190.324 64.3854 190.324 65.4034V66.1136H181.915V64.6648H188.62C188.62 64.0492 188.496 63.5 188.25 63.017C188.009 62.5341 187.663 62.1529 187.213 61.8736C186.768 61.5942 186.243 61.4545 185.637 61.4545C184.969 61.4545 184.391 61.6203 183.904 61.9517C183.421 62.2784 183.049 62.7045 182.789 63.2301C182.528 63.7557 182.398 64.3191 182.398 64.9205V65.8864C182.398 66.7102 182.54 67.4086 182.824 67.9815C183.113 68.5497 183.513 68.983 184.024 69.2812C184.536 69.5748 185.13 69.7216 185.807 69.7216C186.247 69.7216 186.645 69.66 187 69.5369C187.36 69.4091 187.67 69.2197 187.931 68.9688C188.191 68.7131 188.392 68.3958 188.534 68.017L190.154 68.4716C189.983 69.0208 189.697 69.5038 189.294 69.9205C188.892 70.3324 188.395 70.6544 187.803 70.8864C187.211 71.1136 186.546 71.2273 185.807 71.2273Z" fill="black"/>
<path d="M198.726 71V56.4545H200.487V69.4375H207.249V71H198.726ZM232.659 75.0909V60.0909H234.278V61.8239H234.477C234.6 61.6345 234.771 61.393 234.989 61.0994C235.211 60.8011 235.528 60.536 235.94 60.304C236.357 60.0672 236.92 59.9489 237.631 59.9489C238.549 59.9489 239.359 60.1785 240.06 60.6378C240.76 61.0971 241.307 61.7481 241.7 62.5909C242.093 63.4337 242.29 64.428 242.29 65.5739C242.29 66.7292 242.093 67.7306 241.7 68.5781C241.307 69.4209 240.763 70.0743 240.067 70.5384C239.371 70.9976 238.568 71.2273 237.659 71.2273C236.958 71.2273 236.397 71.1113 235.976 70.8793C235.554 70.6425 235.23 70.375 235.003 70.0767C234.775 69.7737 234.6 69.5227 234.477 69.3239H234.335V75.0909H232.659ZM234.307 65.5455C234.307 66.3693 234.427 67.0961 234.669 67.7259C234.91 68.3509 235.263 68.8409 235.727 69.196C236.191 69.5464 236.759 69.7216 237.432 69.7216C238.132 69.7216 238.717 69.5369 239.186 69.1676C239.659 68.7936 240.015 68.2917 240.251 67.6619C240.493 67.0275 240.614 66.322 240.614 65.5455C240.614 64.7784 240.495 64.0871 240.258 63.4716C240.026 62.8513 239.674 62.3613 239.2 62.0014C238.731 61.6368 238.142 61.4545 237.432 61.4545C236.75 61.4545 236.177 61.6274 235.713 61.973C235.249 62.3139 234.899 62.7921 234.662 63.4077C234.425 64.0185 234.307 64.7311 234.307 65.5455Z" fill="#4A86E8"/>
<path d="M214.323 71.2273C213.272 71.2273 212.365 70.9953 211.603 70.5312C210.845 70.0625 210.26 69.4091 209.848 68.571C209.441 67.7282 209.237 66.7481 209.237 65.6307C209.237 64.5133 209.441 63.5284 209.848 62.6761C210.26 61.8191 210.833 61.1515 211.567 60.6733C212.306 60.1903 213.167 59.9489 214.152 59.9489C214.72 59.9489 215.281 60.0436 215.835 60.233C216.389 60.4223 216.894 60.7301 217.348 61.1562C217.803 61.5777 218.165 62.1364 218.435 62.8324C218.705 63.5284 218.84 64.3854 218.84 65.4034V66.1136H210.431V64.6648H217.135C217.135 64.0492 217.012 63.5 216.766 63.017C216.524 62.5341 216.179 62.1529 215.729 61.8736C215.284 61.5942 214.758 61.4545 214.152 61.4545C213.485 61.4545 212.907 61.6203 212.419 61.9517C211.936 62.2784 211.565 62.7045 211.304 63.2301C211.044 63.7557 210.914 64.3191 210.914 64.9205V65.8864C210.914 66.7102 211.056 67.4086 211.34 67.9815C211.629 68.5497 212.029 68.983 212.54 69.2812C213.051 69.5748 213.646 69.7216 214.323 69.7216C214.763 69.7216 215.161 69.66 215.516 69.5369C215.876 69.4091 216.186 69.2197 216.446 68.9688C216.707 68.7131 216.908 68.3958 217.05 68.017L218.669 68.4716C218.499 69.0208 218.212 69.5038 217.81 69.9205C217.407 70.3324 216.91 70.6544 216.318 70.8864C215.727 71.1136 215.061 71.2273 214.323 71.2273Z" fill="#FF0000"/>
<path d="M224.6 71.2557C223.908 71.2557 223.281 71.1255 222.718 70.8651C222.154 70.5999 221.707 70.2188 221.375 69.7216C221.044 69.2197 220.878 68.6136 220.878 67.9034C220.878 67.2784 221.001 66.7718 221.247 66.3835C221.494 65.9905 221.823 65.6828 222.235 65.4602C222.647 65.2377 223.101 65.072 223.598 64.9631C224.1 64.8494 224.604 64.7595 225.111 64.6932C225.774 64.608 226.311 64.544 226.723 64.5014C227.14 64.4541 227.443 64.3759 227.632 64.267C227.826 64.1581 227.924 63.9687 227.924 63.6989V63.642C227.924 62.9413 227.732 62.3968 227.348 62.0085C226.969 61.6203 226.394 61.4261 225.622 61.4261C224.822 61.4261 224.195 61.6013 223.74 61.9517C223.286 62.3021 222.966 62.6761 222.781 63.0739L221.191 62.5057C221.475 61.8428 221.853 61.3267 222.327 60.9574C222.805 60.5833 223.326 60.3229 223.889 60.1761C224.458 60.0246 225.016 59.9489 225.566 59.9489C225.916 59.9489 226.318 59.9915 226.773 60.0767C227.232 60.1572 227.675 60.3253 228.101 60.581C228.532 60.8366 228.889 61.2225 229.174 61.7386C229.458 62.2547 229.6 62.946 229.6 63.8125V71H227.924V69.5227H227.838C227.725 69.7595 227.535 70.0128 227.27 70.2827C227.005 70.5526 226.652 70.7822 226.212 70.9716C225.772 71.161 225.234 71.2557 224.6 71.2557ZM224.855 69.75C225.518 69.75 226.077 69.6198 226.531 69.3594C226.991 69.099 227.336 68.7628 227.568 68.3509C227.805 67.9389 227.924 67.5057 227.924 67.0511V65.517C227.853 65.6023 227.696 65.6804 227.455 65.7514C227.218 65.8177 226.943 65.8769 226.631 65.929C226.323 65.9763 226.022 66.0189 225.729 66.0568C225.44 66.09 225.206 66.1184 225.026 66.142C224.59 66.1989 224.183 66.2912 223.804 66.419C223.43 66.5421 223.127 66.7292 222.895 66.9801C222.668 67.2263 222.554 67.5625 222.554 67.9886C222.554 68.571 222.77 69.0114 223.201 69.3097C223.636 69.6032 224.188 69.75 224.855 69.75Z" fill="#FF9900"/>
<path d="M85.8692 39V9.90909H91.1391V34.5824H103.952V39H85.8692ZM161.768 39V9.90909H172.677C174.912 9.90909 176.787 10.3258 178.302 11.1591C179.826 11.9924 180.977 13.1383 181.753 14.5966C182.539 16.0455 182.932 17.6932 182.932 19.5398C182.932 21.4053 182.539 23.0625 181.753 24.5114C180.967 25.9602 179.807 27.1013 178.273 27.9347C176.739 28.7585 174.85 29.1705 172.606 29.1705H165.376V24.8381H171.895C173.202 24.8381 174.272 24.6108 175.106 24.1562C175.939 23.7017 176.555 23.0767 176.952 22.2812C177.359 21.4858 177.563 20.572 177.563 19.5398C177.563 18.5076 177.359 17.5985 176.952 16.8125C176.555 16.0265 175.934 15.4157 175.091 14.9801C174.258 14.535 173.183 14.3125 171.867 14.3125H167.038V39H161.768Z" fill="#4A86E8"/>
<path d="M108.525 39V9.90909H127.446V14.3267H113.795V22.2244H126.466V26.642H113.795V34.5824H127.56V39H108.525ZM218.486 39V9.90909H229.395C231.63 9.90909 233.505 10.2973 235.02 11.0739C236.545 11.8504 237.696 12.9394 238.472 14.3409C239.258 15.733 239.651 17.357 239.651 19.2131C239.651 21.0786 239.253 22.6979 238.458 24.071C237.672 25.4347 236.512 26.4905 234.978 27.2386C233.444 27.9773 231.559 28.3466 229.324 28.3466H221.555V23.9716H228.614C229.921 23.9716 230.991 23.7917 231.824 23.4318C232.658 23.0625 233.273 22.5275 233.671 21.8267C234.078 21.1165 234.282 20.2453 234.282 19.2131C234.282 18.1809 234.078 17.3002 233.671 16.571C233.264 15.8324 232.644 15.2737 231.81 14.8949C230.977 14.5066 229.902 14.3125 228.586 14.3125H223.756V39H218.486ZM233.515 25.8182L240.716 39H234.836L227.762 25.8182H233.515Z" fill="#FF0000"/>
<path d="M136.558 39H130.933L141.175 9.90909H147.68L157.936 39H152.311L144.541 15.875H144.314L136.558 39ZM136.743 27.5938H152.084V31.8267H136.743V27.5938Z" fill="#FF9900"/>
<path d="M213.504 24.4545C213.504 27.589 212.917 30.2737 211.743 32.5085C210.578 34.7339 208.987 36.4384 206.97 37.6222C204.962 38.8059 202.685 39.3977 200.138 39.3977C197.59 39.3977 195.308 38.8059 193.291 37.6222C191.283 36.429 189.693 34.7197 188.518 32.4943C187.354 30.2595 186.771 27.5795 186.771 24.4545C186.771 21.3201 187.354 18.6402 188.518 16.4148C189.693 14.1799 191.283 12.4706 193.291 11.2869C195.308 10.1032 197.59 9.51136 200.138 9.51136C202.685 9.51136 204.962 10.1032 206.97 11.2869C208.987 12.4706 210.578 14.1799 211.743 16.4148C212.917 18.6402 213.504 21.3201 213.504 24.4545ZM208.206 24.4545C208.206 22.2481 207.86 20.3873 207.169 18.8722C206.487 17.3475 205.54 16.197 204.328 15.4205C203.116 14.6345 201.719 14.2415 200.138 14.2415C198.556 14.2415 197.159 14.6345 195.947 15.4205C194.735 16.197 193.783 17.3475 193.092 18.8722C192.41 20.3873 192.069 22.2481 192.069 24.4545C192.069 26.661 192.41 28.5265 193.092 30.0511C193.783 31.5663 194.735 32.7169 195.947 33.5028C197.159 34.2794 198.556 34.6676 200.138 34.6676C201.719 34.6676 203.116 34.2794 204.328 33.5028C205.54 32.7169 206.487 31.5663 207.169 30.0511C207.86 28.5265 208.206 26.661 208.206 24.4545Z" fill="#6AA84F"/>
<path d="M2.73349 67.6099C1.63869 68.6627 1.333 71.9478 0.418455 70.7351C0.142894 70.3698 0.0663572 70.0901 0.0133239 69.6355C-0.0648123 68.9658 0.217695 68.6008 0.418455 67.9571C0.740981 66.923 1.06083 66.3926 1.5181 65.4106C2.4273 63.458 4.12252 60.549 4.12252 60.549C4.82822 59.2958 5.96322 58.804 5.97455 57.3658C5.98294 56.2997 5.33389 55.8286 4.99065 54.8193C4.59684 53.6612 4.35094 53.0114 4.12252 51.8097C3.85577 50.4064 3.89134 49.5908 3.83314 48.1635C3.77143 46.6505 3.77286 45.799 3.83314 44.2859C3.89089 42.8361 3.93093 42.02 4.12252 40.5818C4.28935 39.3294 4.40795 38.6276 4.70127 37.3986C4.98021 36.2299 5.2158 35.5953 5.56941 34.4469C6.1016 32.7187 6.30771 31.712 7.01631 30.0484C7.84475 28.1033 8.54308 27.1214 9.62073 25.3025C10.34 24.0885 10.7329 23.3991 11.5306 22.2351C12.4967 20.8256 13.7169 20.4037 14.1929 18.7626C14.3461 18.2344 14.4822 17.9204 14.4244 17.3735C14.3627 16.7891 14.1452 16.4901 13.8457 15.9845C13.5344 15.4591 13.272 15.2215 12.8618 14.7691C12.0333 13.8557 9.95304 13.7963 10.4889 12.6856C10.719 12.2086 11.5306 11.8175 11.5306 11.8175C11.5306 11.8175 12.9258 11.409 13.8457 11.2966C14.9674 11.1594 15.6108 11.2405 16.7395 11.2966C18.3999 11.379 19.3363 11.4814 20.9644 11.8175C22.2263 12.0779 22.8611 12.7571 24.1476 12.6856C25.218 12.6261 25.7172 12.0979 26.752 11.8175C28.7174 11.2848 29.878 11.2222 31.903 11.0072C34.1533 10.7682 35.4282 10.6648 37.6906 10.7178C39.2312 10.7539 40.1004 10.7899 41.6261 11.0072C42.8812 11.1859 43.5905 11.2951 44.8093 11.6438C46.0402 11.9961 46.7209 12.2506 47.8767 12.8013C49.6764 13.6589 50.6933 14.2286 52.1595 15.5794C53.3642 16.6892 54.2342 17.6677 54.8218 18.8204L56.3266 21.7721C56.3266 21.7721 57.5966 22.1889 58.3523 22.5824C59.3032 23.0775 59.9023 23.3392 60.6094 24.145C62.269 26.0362 56.8409 22.9951 54.3588 22.5824C52.3422 22.247 51.1778 22.321 49.15 22.0615C46.9938 21.7856 45.8184 21.3692 43.6518 21.1934C41.3314 21.005 40.016 21.0842 37.6906 21.1934C35.3092 21.3051 33.9322 21.2178 31.6136 21.7721C29.8406 22.196 28.893 22.6225 27.215 23.3348C24.6645 24.4174 23.2425 25.1145 20.9644 26.6916C18.5291 28.3774 17.3216 29.569 15.2926 31.7268C12.9391 34.2296 11.6312 35.7236 9.96798 38.7298C8.90478 40.6515 8.35267 41.7804 7.71082 43.8807C6.7981 46.8675 6.54186 48.6892 6.66906 51.8097C6.76622 54.1933 6.92625 55.576 7.71082 57.8288C8.35243 59.6711 10.4843 60.404 9.96798 62.2853C9.62076 63.5506 8.69937 63.9112 7.71082 64.7739C6.02532 66.2449 4.34602 66.0592 2.73349 67.6099Z" fill="#37A3EC"/>
<path d="M10.6046 61.9958C10.2204 61.7837 10.012 61.6446 9.67861 61.3592C8.43479 60.2942 8.35754 59.1463 7.82658 57.5973C6.94622 55.0289 6.97209 53.3927 7.01453 50.7077L7.01632 50.5943C7.05727 47.9927 7.05102 46.4409 7.94233 43.9964C8.1782 43.3496 8.35571 43.0044 8.63684 42.3759C9.04552 41.4623 9.2808 40.952 9.73649 40.0609C10.2063 39.1422 10.4585 38.618 11.0098 37.7458C11.7342 36.5995 12.0988 36.2109 13.0933 34.9678L15.6398 31.7846C16.6343 30.5415 17.4613 29.8595 18.5915 28.8908C19.5913 28.0339 19.9786 27.818 21.0802 27.0967C21.6056 26.7527 21.6329 26.7836 22.4692 26.2864L24.6106 25.0131C24.6106 25.0131 26.4697 23.9591 27.7359 23.4505C29.2225 22.8533 30.1172 22.6811 31.6715 22.293C33.9467 21.7248 35.2398 21.4102 37.5748 21.1933C39.9378 20.9738 41.2862 21.0035 43.6518 21.1933C45.7484 21.3615 46.8907 21.7318 48.9764 22.0036C51.0505 22.2739 52.2466 22.189 54.301 22.5823C57.6441 23.2225 59.495 23.0814 60.6673 24.2029C60.7828 24.3133 60.8918 24.3462 60.9567 24.4922C61.0301 24.6575 60.9963 24.7788 60.9567 24.9553C60.9057 25.1823 60.8407 25.3209 60.6673 25.4761C60.4702 25.6526 60.2817 25.6242 60.0307 25.7076C59.5416 25.8702 59.2707 26.0086 58.7574 26.0549C58.0984 26.1144 57.7373 25.8902 57.079 25.8234C56.3471 25.7491 55.929 25.7344 55.2037 25.7089L55.1691 25.7076C54.153 25.6718 53.5723 25.6845 52.5751 25.7062L52.5068 25.7076C51.4664 25.7302 50.8735 25.6677 49.8445 25.8234C49.3887 25.8924 49.1359 25.9499 48.687 26.0549C47.907 26.2373 47.4798 26.3824 46.7192 26.6337C45.8024 26.9365 45.3205 27.1974 44.4042 27.5018C42.6562 28.0824 41.6139 28.1933 39.832 28.6593C37.9065 29.1629 36.8334 29.4696 34.9125 29.9905C32.3354 30.6893 30.884 31.0575 28.3147 31.7846C27.6813 31.9638 27.3172 32.0355 26.6941 32.2476C25.8597 32.5317 25.4144 32.7539 24.6106 33.1158C23.7626 33.4975 23.281 33.7039 22.4692 34.1575C21.6263 34.6285 21.2027 34.9742 20.3857 35.4887C19.4409 36.0835 18.8667 36.3493 17.9549 36.9934C16.9314 37.7165 16.3834 38.1652 15.4662 39.0191C14.6003 39.8253 14.1887 40.3523 13.3827 41.2184C12.8596 41.7804 12.5087 42.0484 12.0515 42.6653C11.5691 43.3162 11.3945 43.7464 11.0098 44.4594C10.6258 45.1711 10.4134 45.5731 10.0837 46.3115C9.78598 46.9783 9.47964 47.3245 9.38923 48.0477L9.15773 49.8998C9.06732 50.623 9.0963 51.5594 9.15773 52.6199C9.20766 53.4821 9.25831 53.9656 9.38923 54.8192C9.46584 55.3188 9.25909 55.7395 9.62073 56.0925C9.7016 56.1714 9.75142 56.2151 9.85224 56.2661C10.1144 56.3989 10.3109 56.2741 10.6046 56.2661C11.1713 56.2507 11.4852 56.1742 12.0515 56.1504C12.6838 56.1237 13.0399 56.1203 13.672 56.1504C14.1933 56.1752 14.4861 56.1964 15.0032 56.2661C15.4949 56.3324 15.7718 56.391 16.2496 56.492L16.2765 56.4976C16.9147 56.6325 17.2768 56.7006 17.897 56.9028C18.4756 57.0914 18.8095 57.1903 19.3439 57.4815C19.8008 57.7305 20.0763 57.8653 20.4435 58.2339C20.7403 58.5317 21.0275 58.6849 21.0802 59.1021C21.1878 59.9542 19.7378 59.0437 18.8809 59.1021C18.2907 59.1423 17.9599 59.1805 17.3761 59.2757C16.8292 59.3648 16.5068 59.3729 15.9871 59.5651C15.427 59.7721 15.1692 60.0122 14.6559 60.3174C13.7292 60.8686 13.2806 61.2934 12.3409 61.8222C11.962 62.0354 11.7913 62.3627 11.357 62.3431C11.0337 62.3285 10.6046 61.9958 10.6046 61.9958Z" fill="#D9D9D9"/>
<path d="M36.7645 24.8396C36.0893 22.1375 30.7924 24.061 29.8773 26.6916C29.6599 27.3165 29.7607 27.7184 29.6458 28.37C29.5334 29.0074 29.4687 29.3661 29.2985 29.9905L29.2968 29.9969C29.0968 30.7309 28.9824 31.1506 28.6619 31.8426C28.4451 32.3107 28.2971 32.5616 28.0253 33.0001C27.5155 33.8223 27.1396 34.2245 26.5205 34.9679C25.8754 35.7424 23.9511 36.3104 24.7842 36.8778C25.1436 37.1225 25.4493 37.0374 25.8839 37.0514C26.4302 37.069 26.7403 37.001 27.2729 36.8778C28.0049 36.7083 28.3948 36.5189 29.067 36.1832C29.9139 35.7604 30.3578 35.4487 31.0927 34.8521C31.7008 34.3584 32.0079 34.0383 32.5396 33.4631C33.2056 32.7424 33.5644 32.3161 34.1022 31.4953C34.8335 30.3793 35.1027 29.6632 35.607 28.4279C36.1636 27.0647 37.1215 26.2681 36.7645 24.8396Z" fill="#37A3EC"/>
<circle cx="49.2659" cy="19.7464" r="1.35203" fill="#D9D9D9" stroke="#0B8BE2"/>
<path d="M49.3035 19.5506C49.3705 19.3708 49.7394 19.4296 49.6784 19.2475C49.6442 19.1453 49.5662 19.1162 49.4702 19.0744C49.3351 19.0156 49.24 19.0514 49.0952 19.0744C48.907 19.1042 48.7877 19.1265 48.637 19.2475C48.4692 19.3824 48.4098 19.5137 48.3454 19.7238C48.2908 19.9017 48.2383 20.0261 48.3037 20.2C48.3624 20.3559 48.4694 20.3987 48.5953 20.5031C48.7437 20.626 48.8281 20.7142 49.0119 20.7628C49.1696 20.8045 49.2735 20.8141 49.4285 20.7628C49.6053 20.7044 49.6842 20.6074 49.8034 20.4598C49.9111 20.3264 50.0836 20.2273 50.0117 20.0701C49.9268 19.8843 49.6874 20.2516 49.5118 20.1567C49.3991 20.0957 49.3473 20.0209 49.3035 19.8969C49.2587 19.77 49.2565 19.6767 49.3035 19.5506Z" fill="black"/>
</svg>
