<svg width="220" height="48" viewBox="0 0 220 48" fill="none" xmlns="http://www.w3.org/2000/svg">
<path d="M63.8693 39V9.90909H69.1392V34.5824H81.9517V39H63.8693ZM139.768 39V9.90909H150.677C152.912 9.90909 154.787 10.3258 156.302 11.1591C157.826 11.9924 158.977 13.1383 159.754 14.5966C160.54 16.0455 160.933 17.6932 160.933 19.5398C160.933 21.4053 160.54 23.0625 159.754 24.5114C158.968 25.9602 157.808 27.1013 156.273 27.9347C154.739 28.7585 152.85 29.1705 150.606 29.1705H143.376V24.8381H149.896C151.202 24.8381 152.272 24.6108 153.106 24.1562C153.939 23.7017 154.555 23.0767 154.952 22.2812C155.36 21.4858 155.563 20.572 155.563 19.5398C155.563 18.5076 155.36 17.5985 154.952 16.8125C154.555 16.0265 153.934 15.4157 153.092 14.9801C152.258 14.535 151.183 14.3125 149.867 14.3125H145.038V39H139.768Z" fill="#4A86E8"/>
<path d="M86.5256 39V9.90909H105.446V14.3267H91.7955V22.2244H104.466V26.642H91.7955V34.5824H105.56V39H86.5256ZM196.487 39V9.90909H207.396C209.63 9.90909 211.505 10.2973 213.021 11.0739C214.545 11.8504 215.696 12.9394 216.472 14.3409C217.258 15.733 217.651 17.357 217.651 19.2131C217.651 21.0786 217.254 22.6979 216.458 24.071C215.672 25.4347 214.512 26.4905 212.978 27.2386C211.444 27.9773 209.559 28.3466 207.325 28.3466H199.555V23.9716H206.614C207.921 23.9716 208.991 23.7917 209.825 23.4318C210.658 23.0625 211.273 22.5275 211.671 21.8267C212.078 21.1165 212.282 20.2453 212.282 19.2131C212.282 18.1809 212.078 17.3002 211.671 16.571C211.264 15.8324 210.644 15.2737 209.81 14.8949C208.977 14.5066 207.902 14.3125 206.586 14.3125H201.756V39H196.487ZM211.515 25.8182L218.717 39H212.836L205.762 25.8182H211.515Z" fill="#FF0000"/>
<path d="M114.558 39H108.933L119.175 9.90909H125.68L135.936 39H130.311L122.541 15.875H122.314L114.558 39ZM114.743 27.5938H130.084V31.8267H114.743V27.5938Z" fill="#FF9900"/>
<path d="M191.504 24.4545C191.504 27.589 190.917 30.2737 189.743 32.5085C188.578 34.7339 186.987 36.4384 184.97 37.6222C182.963 38.8059 180.685 39.3977 178.138 39.3977C175.59 39.3977 173.308 38.8059 171.291 37.6222C169.284 36.429 167.693 34.7197 166.518 32.4943C165.354 30.2595 164.771 27.5795 164.771 24.4545C164.771 21.3201 165.354 18.6402 166.518 16.4148C167.693 14.1799 169.284 12.4706 171.291 11.2869C173.308 10.1032 175.59 9.51136 178.138 9.51136C180.685 9.51136 182.963 10.1032 184.97 11.2869C186.987 12.4706 188.578 14.1799 189.743 16.4148C190.917 18.6402 191.504 21.3201 191.504 24.4545ZM186.206 24.4545C186.206 22.2481 185.86 20.3873 185.169 18.8722C184.487 17.3475 183.54 16.197 182.328 15.4205C181.116 14.6345 179.719 14.2415 178.138 14.2415C176.556 14.2415 175.16 14.6345 173.947 15.4205C172.735 16.197 171.784 17.3475 171.092 18.8722C170.411 20.3873 170.07 22.2481 170.07 24.4545C170.07 26.661 170.411 28.5265 171.092 30.0511C171.784 31.5663 172.735 32.7169 173.947 33.5028C175.16 34.2794 176.556 34.6676 178.138 34.6676C179.719 34.6676 181.116 34.2794 182.328 33.5028C183.54 32.7169 184.487 31.5663 185.169 30.0511C185.86 28.5265 186.206 26.661 186.206 24.4545Z" fill="#6AA84F"/>
<path d="M1.99473 45.5261C1.19581 46.2943 0.972736 48.6917 0.305362 47.8067C0.104275 47.5401 0.0484233 47.336 0.00972292 47.0043C-0.0472958 46.5155 0.15886 46.2492 0.305362 45.7795C0.54072 45.0248 0.774125 44.6378 1.10781 43.9212C1.77129 42.4963 3.00835 40.3735 3.00835 40.3735C3.52333 39.459 4.35157 39.1001 4.35984 38.0506C4.36597 37.2727 3.89233 36.9289 3.64186 36.1923C3.35448 35.3472 3.17504 34.8731 3.00835 33.9962C2.81369 32.9721 2.83965 32.3769 2.79718 31.3354C2.75215 30.2313 2.75319 29.6099 2.79718 28.5057C2.83932 27.4478 2.86854 26.8523 3.00835 25.8027C3.13009 24.8888 3.21664 24.3767 3.43069 23.4799C3.63424 22.627 3.80616 22.1639 4.0642 21.3259C4.45255 20.0648 4.60296 19.3302 5.12005 18.1161C5.72459 16.6968 6.23419 15.9802 7.02059 14.6529C7.5455 13.767 7.83215 13.2639 8.41432 12.4145C9.11929 11.3859 10.0097 11.0781 10.3571 9.88046C10.4689 9.49504 10.5682 9.26592 10.526 8.86684C10.481 8.44038 10.3223 8.22215 10.1037 7.85322C9.87652 7.46984 9.68509 7.29639 9.3857 6.9663C8.78112 6.29973 7.26309 6.2564 7.6541 5.44587C7.82202 5.09781 8.41432 4.81236 8.41432 4.81236C8.41432 4.81236 9.43245 4.51431 10.1037 4.43226C10.9223 4.33218 11.3917 4.39134 12.2154 4.43226C13.427 4.49244 14.1104 4.5671 15.2985 4.81236C16.2193 5.00246 16.6825 5.49803 17.6214 5.44587C18.4025 5.40248 18.7668 5.017 19.5219 4.81236C20.9561 4.42368 21.8031 4.37799 23.2807 4.22108C24.9229 4.04671 25.8532 3.97121 27.5041 4.00991C28.6284 4.03627 29.2627 4.06256 30.3761 4.22108C31.2919 4.35149 31.8095 4.43115 32.6989 4.68566C33.5972 4.94271 34.0939 5.12843 34.9374 5.53034C36.2507 6.15614 36.9927 6.57185 38.0627 7.55758C38.9418 8.36748 39.5766 9.08153 40.0055 9.92269L41.1035 12.0766C41.1035 12.0766 42.0303 12.3808 42.5817 12.6679C43.2756 13.0293 43.7128 13.2202 44.2289 13.8082C45.44 15.1883 41.4788 12.9691 39.6676 12.6679C38.196 12.4232 37.3463 12.4771 35.8665 12.2878C34.293 12.0865 33.4354 11.7826 31.8543 11.6543C30.161 11.5169 29.2011 11.5746 27.5041 11.6543C25.7664 11.7359 24.7615 11.6721 23.0696 12.0766C21.7758 12.3859 21.0843 12.6972 19.8598 13.217C17.9986 14.007 16.9609 14.5157 15.2985 15.6665C13.5214 16.8968 12.6402 17.7663 11.1595 19.3409C9.44209 21.1673 8.48767 22.2575 7.27399 24.4512C6.49814 25.8536 6.09524 26.6774 5.62686 28.2101C4.96082 30.3896 4.77383 31.719 4.86665 33.9962C4.93755 35.7355 5.05433 36.7445 5.62686 38.3885C6.09507 39.7329 7.65073 40.2677 7.27399 41.6405C7.02061 42.5639 6.34824 42.827 5.62686 43.4566C4.39689 44.5301 3.17144 44.3945 1.99473 45.5261Z" fill="#37A3EC"/>
<path d="M7.73857 41.4293C7.45822 41.2746 7.30608 41.1731 7.06283 40.9648C6.15516 40.1876 6.0988 39.3499 5.71133 38.2196C5.0689 36.3453 5.08778 35.1513 5.11875 33.192L5.12006 33.1092C5.14994 31.2108 5.14538 30.0783 5.7958 28.2945C5.96792 27.8225 6.09746 27.5706 6.30261 27.112C6.60084 26.4452 6.77253 26.0729 7.10506 25.4226C7.44786 24.7522 7.63196 24.3697 8.03421 23.7332C8.5629 22.8967 8.82893 22.6131 9.55464 21.706L11.4129 19.3831C12.1387 18.476 12.7421 17.9783 13.5669 17.2714C14.2965 16.6461 14.5791 16.4885 15.383 15.9622C15.7663 15.7111 15.7863 15.7337 16.3966 15.3709L17.9592 14.4417C17.9592 14.4417 19.3159 13.6726 20.2399 13.3014C21.3247 12.8656 21.9776 12.74 23.1118 12.4567C24.7721 12.0421 25.7157 11.8126 27.4197 11.6543C29.1441 11.4941 30.128 11.5158 31.8543 11.6543C33.3842 11.777 34.2178 12.0472 35.7398 12.2456C37.2533 12.4428 38.1262 12.3808 39.6253 12.6679C42.0649 13.135 43.4156 13.0321 44.2711 13.8505C44.3554 13.9311 44.4349 13.955 44.4823 14.0616C44.5359 14.1822 44.5112 14.2708 44.4823 14.3995C44.445 14.5652 44.3976 14.6663 44.2711 14.7796C44.1273 14.9084 43.9897 14.8877 43.8065 14.9485C43.4496 15.0671 43.252 15.1681 42.8774 15.2019C42.3965 15.2453 42.133 15.0818 41.6526 15.033C41.1185 14.9788 40.8134 14.9681 40.2841 14.9494L40.2589 14.9485C39.5174 14.9224 39.0936 14.9316 38.3659 14.9475L38.3161 14.9485C37.5569 14.965 37.1242 14.9194 36.3733 15.033C36.0407 15.0833 35.8562 15.1253 35.5286 15.2019C34.9595 15.3351 34.6477 15.441 34.0927 15.6243C33.4236 15.8453 33.072 16.0357 32.4033 16.2578C31.1277 16.6815 30.3672 16.7624 29.0668 17.1025C27.6617 17.4699 26.8787 17.6938 25.4769 18.0739C23.5963 18.5838 22.5371 18.8526 20.6622 19.3831C20.2001 19.5139 19.9343 19.5662 19.4797 19.721C18.8707 19.9283 18.5458 20.0905 17.9592 20.3545C17.3404 20.6331 16.989 20.7837 16.3966 21.1147C15.7815 21.4584 15.4724 21.7107 14.8761 22.0861C14.1867 22.5202 13.7677 22.7141 13.1023 23.1842C12.3554 23.7118 11.9555 24.0393 11.2862 24.6624C10.6543 25.2507 10.354 25.6353 9.76581 26.2673C9.38409 26.6774 9.12806 26.873 8.79443 27.3231C8.44236 27.7981 8.31498 28.1121 8.03421 28.6324C7.75399 29.1517 7.59906 29.4451 7.35846 29.9839C7.14118 30.4705 6.91763 30.7231 6.85166 31.2509L6.68272 32.6024C6.61674 33.1302 6.6379 33.8135 6.68272 34.5874C6.71916 35.2166 6.75612 35.5694 6.85166 36.1923C6.90756 36.5569 6.75668 36.8638 7.02059 37.1215C7.0796 37.1791 7.11596 37.2109 7.18953 37.2482C7.38081 37.345 7.52424 37.254 7.73857 37.2482C8.15207 37.2369 8.38114 37.1811 8.79443 37.1637C9.25583 37.1443 9.51569 37.1418 9.97698 37.1637C10.3573 37.1818 10.571 37.1973 10.9484 37.2482C11.3072 37.2966 11.5093 37.3393 11.858 37.413L11.8775 37.4171C12.3433 37.5155 12.6075 37.5652 13.0601 37.7127C13.4823 37.8504 13.726 37.9226 14.1159 38.1351C14.4494 38.3168 14.6504 38.4152 14.9184 38.6841C15.1349 38.9014 15.3445 39.0133 15.383 39.3176C15.4615 39.9395 14.4034 39.275 13.7781 39.3176C13.3474 39.347 13.106 39.3749 12.68 39.4443C12.2809 39.5094 12.0456 39.5153 11.6663 39.6555C11.2576 39.8066 11.0695 39.9818 10.695 40.2046C10.0187 40.6068 9.69132 40.9167 9.0056 41.3026C8.72911 41.4582 8.60455 41.6971 8.28762 41.6828C8.05171 41.6721 7.73857 41.4293 7.73857 41.4293Z" fill="#D9D9D9"/>
<path d="M26.8284 14.3151C26.3356 12.3433 22.4703 13.747 21.8025 15.6666C21.6439 16.1226 21.7174 16.4159 21.6336 16.8914C21.5516 17.3565 21.5044 17.6183 21.3802 18.0739L21.3789 18.0786C21.2329 18.6142 21.1494 18.9205 20.9156 19.4254C20.7574 19.767 20.6494 19.9501 20.451 20.2701C20.079 20.8701 19.8047 21.1636 19.3529 21.7061C18.8822 22.2713 17.4779 22.6857 18.0859 23.0998C18.3481 23.2784 18.5713 23.2163 18.8884 23.2265C19.2871 23.2394 19.5133 23.1897 19.902 23.0998C20.4361 22.9762 20.7207 22.8379 21.2112 22.593C21.8292 22.2844 22.1531 22.057 22.6894 21.6216C23.1332 21.2614 23.3573 21.0277 23.7453 20.608C24.2313 20.0821 24.4931 19.771 24.8856 19.172C25.4193 18.3576 25.6157 17.8351 25.9837 16.9336C26.3898 15.9388 27.0889 15.3575 26.8284 14.3151Z" fill="#37A3EC"/>
<circle cx="35.9511" cy="10.5984" r="0.851493" fill="#D9D9D9" stroke="#0B8BE2"/>
<path d="M35.9785 10.4556C36.0273 10.3244 36.2966 10.3673 36.2521 10.2344C36.2271 10.1598 36.1702 10.1386 36.1001 10.1081C36.0015 10.0652 35.9321 10.0913 35.8265 10.1081C35.6891 10.1298 35.602 10.1461 35.4921 10.2344C35.3696 10.3328 35.3263 10.4287 35.2793 10.582C35.2395 10.7118 35.2011 10.8026 35.2489 10.9295C35.2917 11.0432 35.3698 11.0745 35.4617 11.1506C35.5699 11.2403 35.6315 11.3047 35.7657 11.3402C35.8807 11.3706 35.9565 11.3776 36.0697 11.3402C36.1986 11.2975 36.2563 11.2268 36.3433 11.119C36.4218 11.0217 36.5477 10.9494 36.4953 10.8347C36.4333 10.6991 36.2586 10.9672 36.1305 10.8979C36.0482 10.8534 36.0104 10.7988 35.9785 10.7083C35.9457 10.6157 35.9442 10.5476 35.9785 10.4556Z" fill="black"/>
</svg>
