<svg width="139" height="138" viewBox="0 0 139 138" fill="none" xmlns="http://www.w3.org/2000/svg">
<path d="M6.22878 129.67C3.73406 132.069 3.03749 139.555 0.95353 136.792C0.32561 135.959 0.151208 135.322 0.030361 134.286C-0.147687 132.76 0.496059 131.928 0.95353 130.462C1.68846 128.105 2.4173 126.896 3.45927 124.659C5.53105 120.21 9.39393 113.581 9.39393 113.581C11.002 110.725 13.5883 109.604 13.6141 106.327C13.6333 103.898 12.1543 102.825 11.3722 100.524C10.4748 97.8855 9.91445 96.405 9.39393 93.6667C8.7861 90.469 8.86715 88.6103 8.73452 85.3581C8.59393 81.9103 8.59716 79.97 8.73452 76.5221C8.86613 73.2185 8.95736 71.359 9.39393 68.0817C9.7741 65.2278 10.0444 63.6287 10.7127 60.8282C11.3483 58.1651 11.8852 56.7189 12.691 54.1023C13.9036 50.1642 14.3733 47.8703 15.988 44.0793C17.8757 39.6472 19.467 37.4095 21.9227 33.265C23.5618 30.4986 24.4568 28.9277 26.2747 26.2753C28.4761 23.0635 31.2565 22.1021 32.3413 18.3625C32.6904 17.1589 33.0005 16.4435 32.8688 15.1973C32.7281 13.8656 32.2326 13.1842 31.55 12.0322C30.8407 10.835 30.2429 10.2934 29.308 9.26264C27.4201 7.18118 22.6799 7.04589 23.9009 4.51492C24.4252 3.42803 26.2747 2.5367 26.2747 2.5367C26.2747 2.5367 29.454 1.60601 31.55 1.34977C34.1061 1.03729 35.5721 1.22202 38.144 1.34977C41.9276 1.53769 44.0614 1.77085 47.7714 2.5367C50.6469 3.13029 52.0933 4.67779 55.0248 4.51492C57.4641 4.37941 58.6016 3.1757 60.9595 2.5367C65.4381 1.323 68.0828 1.18033 72.6969 0.690363C77.8248 0.145847 80.7298 -0.0899003 85.8851 0.0309566C89.3958 0.113258 91.3764 0.195337 94.853 0.690363C97.7129 1.09758 99.3292 1.34632 102.106 2.14106C104.911 2.94372 106.462 3.52367 109.096 4.77868C113.197 6.7328 115.514 8.03092 118.855 11.109C121.6 13.638 123.583 15.8677 124.922 18.4943L128.351 25.2203C128.351 25.2203 131.245 26.1699 132.967 27.0666C135.133 28.195 136.499 28.7912 138.11 30.6274C141.892 34.9369 129.523 28.0072 123.867 27.0666C119.272 26.3024 116.618 26.4709 111.998 25.8797C107.084 25.251 104.406 24.3022 99.4688 23.9015C94.1814 23.4723 91.184 23.6527 85.8851 23.9015C80.4588 24.1562 77.3209 23.9572 72.0375 25.2203C67.9975 26.1861 65.8382 27.158 62.0146 28.7811C56.2028 31.2481 52.9625 32.8365 47.7714 36.4302C42.2221 40.2718 39.4705 42.987 34.847 47.9039C29.4841 53.607 26.5038 57.0114 22.7139 63.8615C20.2912 68.2405 19.0331 70.8129 17.5706 75.5989C15.4908 82.4048 14.9069 86.556 15.1967 93.6667C15.4181 99.0981 15.7828 102.249 17.5706 107.382C19.0326 111.58 23.8904 113.25 22.7139 117.537C21.9227 120.42 19.8232 121.242 17.5706 123.208C13.7298 126.56 9.90322 126.137 6.22878 129.67Z" fill="#37A3EC"/>
<path d="M24.1646 116.878C23.2892 116.394 22.8141 116.077 22.0545 115.427C19.2203 113 19.0442 110.384 17.8343 106.855C15.8283 101.002 15.8872 97.2737 15.9839 91.1555L15.988 90.8971C16.0813 84.9689 16.0671 81.4327 18.0981 75.8626C18.6356 74.3886 19.0401 73.6021 19.6807 72.1699C20.6119 70.088 21.1481 68.9253 22.1864 66.8947C23.2569 64.8013 23.8317 63.6069 25.0878 61.6194C26.7387 59.0072 27.5694 58.1218 29.8355 55.2891L35.6383 48.0357C37.9044 45.203 39.7889 43.6488 42.3642 41.4416C44.6424 39.489 45.5249 38.9969 48.0352 37.3533C49.2324 36.5694 49.2947 36.64 51.2003 35.5069L56.0799 32.6056C56.0799 32.6056 60.3162 30.2038 63.2015 29.0448C66.5889 27.684 68.6276 27.2916 72.1694 26.4071C77.3539 25.1125 80.3006 24.3957 85.6213 23.9014C91.0059 23.4012 94.0784 23.4689 99.4688 23.9014C104.246 24.2847 106.849 25.1284 111.602 25.7477C116.328 26.3636 119.054 26.1702 123.735 27.0665C131.353 28.5252 135.571 28.2038 138.242 30.7592C138.505 31.011 138.753 31.0858 138.901 31.4186C139.069 31.7951 138.992 32.0717 138.901 32.4737C138.785 32.991 138.637 33.3069 138.242 33.6606C137.793 34.0627 137.363 33.998 136.791 34.1881C135.677 34.5584 135.06 34.8739 133.89 34.9794C132.388 35.1149 131.565 34.6041 130.065 34.4519C128.398 34.2827 127.445 34.2491 125.792 34.1909L125.713 34.1881C123.398 34.1065 122.075 34.1353 119.802 34.1847L119.647 34.1881C117.276 34.2396 115.925 34.0971 113.58 34.4519C112.542 34.6091 111.965 34.7402 110.943 34.9794C109.165 35.3951 108.192 35.7258 106.459 36.2982C104.369 36.9883 103.271 37.5829 101.183 38.2764C97.2002 39.5994 94.8252 39.8522 90.7647 40.9141C86.3771 42.0615 83.9319 42.7604 79.5548 43.9473C73.6823 45.5397 70.3749 46.3789 64.5203 48.0357C63.0772 48.444 62.2474 48.6074 60.8276 49.0907C58.9262 49.738 57.9115 50.2444 56.0799 51.0689C54.1476 51.9388 53.0502 52.4091 51.2003 53.4428C49.2796 54.516 48.3145 55.3037 46.4526 56.4761C44.2997 57.8316 42.9914 58.4371 40.9136 59.905C38.5813 61.5525 37.3327 62.5751 35.2427 64.5208C33.2695 66.3578 32.3316 67.5588 30.4949 69.5323C29.303 70.813 28.5035 71.4238 27.4617 72.8293C26.3623 74.3125 25.9645 75.2929 25.0878 76.9177C24.2128 78.5393 23.729 79.4553 22.9777 81.1379C22.2992 82.6574 21.6012 83.4462 21.3951 85.0943L20.8676 89.3145C20.6616 90.9626 20.7277 93.0963 20.8676 95.5129C20.9814 97.4775 21.0968 98.5792 21.3951 100.524C21.5697 101.663 21.0986 102.621 21.9227 103.426C22.1069 103.606 22.2205 103.705 22.4502 103.821C23.0475 104.124 23.4954 103.84 24.1646 103.821C25.4559 103.786 26.1711 103.612 27.4617 103.558C28.9025 103.497 29.7139 103.489 31.1544 103.558C32.342 103.614 33.0093 103.663 34.1876 103.821C35.3081 103.973 35.939 104.106 37.0278 104.336L37.089 104.349C38.5433 104.656 39.3684 104.811 40.7817 105.272C42.1002 105.702 42.861 105.927 44.0787 106.591C45.1199 107.158 45.7475 107.466 46.5845 108.305C47.2607 108.984 47.9151 109.333 48.0352 110.284C48.2804 112.225 44.9762 110.151 43.0237 110.284C41.6788 110.375 40.9251 110.462 39.5948 110.679C38.3486 110.882 37.6139 110.901 36.4296 111.339C35.1533 111.81 34.5658 112.358 33.3963 113.053C31.2845 114.309 30.2624 115.277 28.1211 116.482C27.2577 116.968 26.8688 117.714 25.8791 117.669C25.1424 117.636 24.1646 116.878 24.1646 116.878Z" fill="#D9D9D9"/>
<path d="M83.7749 32.21C82.2362 26.0528 70.1662 30.4359 68.081 36.4302C67.5857 37.8542 67.8153 38.7699 67.5535 40.2548C67.2975 41.7072 67.15 42.5245 66.7622 43.9474L66.7582 43.9621C66.3024 45.6344 66.0418 46.5908 65.3115 48.1676C64.8175 49.2344 64.4803 49.8061 63.8608 50.8053C62.6993 52.6788 61.8427 53.5953 60.4319 55.2892C58.962 57.0542 54.577 58.3484 56.4755 59.6413C57.2943 60.1989 57.9911 60.005 58.9812 60.0369C60.2263 60.0771 60.9328 59.9222 62.1464 59.6413C63.8143 59.2553 64.703 58.8236 66.2347 58.0587C68.1645 57.0951 69.1759 56.3849 70.8505 55.0255C72.2363 53.9005 72.9361 53.1711 74.1476 51.8603C75.6653 50.2182 76.4828 49.2467 77.7084 47.3763C79.3747 44.8333 79.9881 43.2015 81.1373 40.3866C82.4055 37.2803 84.5884 35.4651 83.7749 32.21Z" fill="#37A3EC"/>
<circle cx="112.261" cy="20.6045" r="3.7202" fill="#D9D9D9" stroke="#0B8BE2"/>
<path d="M112.348 20.1581C112.5 19.7484 113.341 19.8824 113.202 19.4675C113.124 19.2345 112.946 19.1682 112.727 19.0729C112.419 18.939 112.203 19.0206 111.873 19.0729C111.444 19.1409 111.172 19.1917 110.829 19.4675C110.446 19.7747 110.311 20.0741 110.164 20.5527C110.04 20.9581 109.92 21.2416 110.069 21.6379C110.203 21.9931 110.447 22.0907 110.734 22.3285C111.072 22.6085 111.264 22.8097 111.683 22.9204C112.042 23.0153 112.279 23.0372 112.632 22.9204C113.035 22.7872 113.215 22.5663 113.487 22.2298C113.732 21.9259 114.125 21.7002 113.961 21.3419C113.768 20.9186 113.222 21.7556 112.822 21.5392C112.565 21.4003 112.447 21.2298 112.348 20.9473C112.245 20.658 112.24 20.4455 112.348 20.1581Z" fill="black" stroke="black"/>
</svg>
